<svg width="478" height="498" viewBox="0 0 478 498" fill="none" xmlns="http://www.w3.org/2000/svg">
<path fill-rule="evenodd" clip-rule="evenodd" d="M531.99 221.619L529.99 221.6C529.997 220.94 530 220.281 530 219.622C530 218.95 529.997 218.278 529.99 217.608L531.99 217.588C531.997 218.265 532 218.943 532 219.622C532 220.288 531.997 220.954 531.99 221.619ZM531.908 213.542L529.909 213.603C529.869 212.274 529.815 210.95 529.748 209.631L531.746 209.53C531.813 210.862 531.867 212.199 531.908 213.542ZM531.501 205.52L529.506 205.663C529.411 204.326 529.302 202.995 529.179 201.67L531.171 201.486C531.294 202.825 531.405 204.17 531.501 205.52ZM530.758 197.487C530.607 196.153 530.441 194.825 530.262 193.504L528.28 193.772C528.457 195.08 528.621 196.393 528.771 197.713L530.758 197.487ZM529.677 189.5C529.468 188.171 529.245 186.849 529.009 185.532L527.04 185.886C527.274 187.188 527.494 188.496 527.701 189.811L529.677 189.5ZM528.257 181.589L526.296 181.985C526.032 180.674 525.753 179.371 525.462 178.073L527.413 177.634C527.708 178.946 527.989 180.264 528.257 181.589ZM526.487 173.718L524.546 174.199C524.226 172.911 523.893 171.629 523.547 170.353L525.477 169.829C525.827 171.119 526.164 172.415 526.487 173.718ZM524.375 165.942L522.457 166.509C522.081 165.234 521.691 163.966 521.288 162.704L523.193 162.095C523.6 163.371 523.995 164.653 524.375 165.942ZM521.927 158.278L520.035 158.929C519.602 157.669 519.155 156.415 518.695 155.169L520.571 154.476C521.036 155.737 521.488 157.004 521.927 158.278ZM519.137 150.716L517.276 151.449C516.789 150.213 516.289 148.984 515.776 147.762L517.62 146.988C518.139 148.224 518.644 149.466 519.137 150.716ZM516.019 143.287L514.192 144.101C513.651 142.887 513.097 141.681 512.531 140.481L514.34 139.628C514.912 140.84 515.472 142.06 516.019 143.287ZM512.581 136.005L510.792 136.898C510.198 135.708 509.592 134.525 508.974 133.349L510.744 132.418C511.369 133.607 511.982 134.802 512.581 136.005ZM508.831 128.874L507.081 129.843C506.438 128.681 505.782 127.525 505.115 126.377L506.844 125.372C507.518 126.532 508.181 127.7 508.831 128.874ZM504.782 121.911L503.074 122.952C502.382 121.818 501.678 120.69 500.963 119.57L502.648 118.493C503.371 119.625 504.083 120.764 504.782 121.911ZM500.445 115.122L498.782 116.233C498.044 115.129 497.294 114.031 496.533 112.941L498.173 111.796C498.942 112.898 499.699 114.006 500.445 115.122ZM495.833 108.515L494.216 109.693C493.434 108.619 492.641 107.553 491.837 106.494L493.43 105.285C494.242 106.354 495.043 107.431 495.833 108.515ZM490.963 102.101L489.394 103.342C488.569 102.298 487.733 101.262 486.886 100.233L488.431 98.9627C489.285 100.001 490.13 101.048 490.963 102.101ZM485.844 95.8803L484.325 97.1804C483.461 96.1707 482.587 95.1682 481.702 94.1731L483.197 92.8445C484.09 93.849 484.972 94.8609 485.844 95.8803ZM480.489 89.8537L479.019 91.2099C478.119 90.2347 477.209 89.2669 476.29 88.3063L477.734 86.9233C478.662 87.8927 479.58 88.8694 480.489 89.8537ZM474.923 84.0387C473.976 83.0847 473.019 82.1383 472.053 81.1993L470.659 82.6334C471.617 83.5641 472.565 84.5021 473.503 85.4476L474.923 84.0387ZM469.147 78.4229L467.778 79.8812C466.808 78.9712 465.83 78.0685 464.842 77.1731L466.185 75.6914C467.181 76.5944 468.169 77.5049 469.147 78.4229ZM463.171 73.0061C462.165 72.1244 461.149 71.2502 460.126 70.3835L458.833 71.91C459.849 72.7695 460.855 73.6364 461.854 74.5106L463.171 73.0061ZM457.029 67.8057L455.762 69.3533C454.73 68.5091 453.691 67.6723 452.643 66.8428L453.884 65.2746C454.94 66.1108 455.989 66.9545 457.029 67.8057ZM450.713 62.8056C449.648 61.9901 448.575 61.182 447.494 60.3813L446.303 61.9883C447.376 62.7827 448.44 63.5845 449.497 64.3936L450.713 62.8056ZM444.231 58.0036L443.066 59.6291C441.987 58.8556 440.901 58.0893 439.807 57.3304L440.947 55.6873C442.049 56.452 443.144 57.2241 444.231 58.0036ZM437.619 53.4153L436.504 55.0756C435.397 54.3319 434.282 53.5954 433.161 52.8663L434.251 51.1895C435.381 51.924 436.504 52.666 437.619 53.4153ZM430.865 49.0242L429.8 50.7169C428.673 50.0077 427.539 49.3058 426.399 48.6112L427.44 46.9031C428.588 47.6027 429.73 48.3098 430.865 49.0242ZM423.976 44.8271C422.823 44.1477 421.665 43.4756 420.5 42.8109L419.508 44.548C420.665 45.2081 421.816 45.8754 422.96 46.55L423.976 44.8271ZM416.987 40.8388L416.02 42.5895C414.851 41.944 413.676 41.3058 412.495 40.6748L413.438 38.9108C414.627 39.5461 415.81 40.1887 416.987 40.8388ZM409.88 37.0412L408.962 38.8179C407.779 38.2063 406.59 37.6019 405.395 37.0048L406.29 35.2159C407.492 35.817 408.689 36.4255 409.88 37.0412ZM402.666 33.4346L401.796 35.2353C400.599 34.6565 399.396 34.0849 398.188 33.5206L399.035 31.7086C400.25 32.2766 401.461 32.852 402.666 33.4346ZM395.375 30.0278L394.552 31.8507C393.335 31.3013 392.113 30.7592 390.886 30.2243L391.686 28.391C392.92 28.9293 394.15 29.4749 395.375 30.0278ZM387.987 26.8065L387.211 28.6499C385.984 28.1331 384.751 27.6236 383.514 27.1213L384.267 25.2682C385.511 25.7737 386.752 26.2865 387.987 26.8065ZM380.519 23.7737L379.79 25.636C378.549 25.1502 377.304 24.6715 376.055 24.2001L376.761 22.3289C378.018 22.8032 379.271 23.2848 380.519 23.7737ZM372.986 20.931L372.303 22.8108C371.049 22.3549 369.79 21.9062 368.527 21.4648L369.188 19.5768C370.458 20.0209 371.724 20.4723 372.986 20.931ZM365.376 18.2701L364.739 20.1658C363.476 19.7414 362.21 19.3241 360.94 18.9141L361.554 17.0108C362.832 17.4233 364.106 17.8431 365.376 18.2701ZM357.71 15.7951L357.119 17.7056C355.843 17.3106 354.565 16.9229 353.283 16.5424L353.852 14.6251C355.142 15.0078 356.428 15.3978 357.71 15.7951ZM349.988 13.5028L349.442 15.4267C348.158 15.062 346.871 14.7045 345.581 14.3543L346.105 12.4242C347.403 12.7764 348.697 13.136 349.988 13.5028ZM342.207 11.3898L341.705 13.3259C340.415 12.9917 339.122 12.6647 337.827 12.345L338.306 10.4033C339.609 10.7249 340.909 11.0537 342.207 11.3898ZM334.389 9.46036L333.932 11.4075C332.632 11.1022 331.328 10.8042 330.022 10.5135L330.457 8.56128C331.77 8.85365 333.081 9.15335 334.389 9.46036ZM326.524 7.70909L326.111 9.66612C324.806 9.391 323.498 9.12314 322.188 8.86256L322.578 6.90098C323.896 7.16304 325.211 7.43242 326.524 7.70909ZM318.619 6.13681L318.251 8.10267C316.94 7.8572 315.626 7.61901 314.311 7.38811L314.657 5.41823C315.979 5.65042 317.3 5.88996 318.619 6.13681ZM310.686 4.7443L310.363 6.71794C309.045 6.50185 307.725 6.29307 306.404 6.09161L306.705 4.11446C308.034 4.31704 309.361 4.527 310.686 4.7443ZM302.719 3.5295L302.44 5.5099C301.118 5.32357 299.795 5.14456 298.471 4.97289L298.728 2.98948C300.06 3.16211 301.39 3.34213 302.719 3.5295ZM294.729 2.49378L294.495 4.47993C293.168 4.32303 291.841 4.1735 290.512 4.03135L290.725 2.04269C292.061 2.18564 293.396 2.33601 294.729 2.49378ZM286.718 1.63668L286.528 3.62758C285.199 3.50038 283.868 3.38056 282.537 3.26816L282.706 1.27525C284.044 1.38828 285.382 1.50876 286.718 1.63668ZM278.688 0.95854L278.542 2.9532C277.211 2.85575 275.879 2.76572 274.546 2.68313L274.67 0.686961C276.01 0.770009 277.349 0.860543 278.688 0.95854ZM270.648 0.460302L270.546 2.45773C269.212 2.39006 267.878 2.32985 266.543 2.27714L266.622 0.2787C267.965 0.331708 269.306 0.39225 270.648 0.460302ZM262.596 0.142334L262.54 2.14154C261.205 2.10384 259.87 2.07366 258.535 2.05101L258.569 0.0512932C259.911 0.0740726 261.254 0.104427 262.596 0.142334ZM254.54 0.0057048L254.529 2.00567C253.861 2.00189 253.194 2 252.526 2C251.857 2 251.189 2.00258 250.522 2.00774L250.506 0.00779772C251.179 0.00260245 251.852 0 252.526 0C253.198 0 253.869 0.00190259 254.54 0.0057048ZM246.478 0.0700058L246.525 2.06947C245.195 2.10029 243.868 2.14132 242.543 2.19249L242.466 0.193979C243.801 0.142412 245.138 0.101062 246.478 0.0700058ZM238.458 0.379873L238.566 2.37695C237.233 2.44914 235.902 2.53162 234.574 2.62429L234.435 0.629146C235.773 0.535749 237.114 0.452631 238.458 0.379873ZM230.429 0.940099L230.6 2.93283C229.277 3.0459 227.957 3.1691 226.64 3.30235L226.439 1.31251C227.766 1.17821 229.096 1.05405 230.429 0.940099ZM222.431 1.74993L222.664 3.73636C221.341 3.89121 220.022 4.05621 218.706 4.23129L218.442 2.24876C219.769 2.0723 221.098 1.906 222.431 1.74993ZM214.473 2.80852L214.768 4.78667C213.448 4.98334 212.132 5.19016 210.819 5.40704L210.493 3.43379C211.816 3.21519 213.143 3.00674 214.473 2.80852ZM206.53 4.12057L206.887 6.08843C205.58 6.32559 204.277 6.57274 202.977 6.82982L202.589 4.86783C203.899 4.60872 205.213 4.3596 206.53 4.12057ZM198.647 5.67997L199.066 7.63557C197.764 7.91465 196.465 8.20372 195.171 8.50269L194.721 6.55397C196.026 6.25263 197.335 5.96127 198.647 5.67997ZM190.818 7.48785L191.298 9.42921C190.006 9.74929 188.717 10.0793 187.433 10.4191L186.921 8.48559C188.216 8.14309 189.515 7.81048 190.818 7.48785ZM183.04 9.54537L183.582 11.4705C182.303 11.8308 181.028 12.2008 179.757 12.5806L179.184 10.6643C180.465 10.2815 181.751 9.90851 183.04 9.54537ZM175.342 11.8458L175.945 13.7527C174.675 14.1542 173.409 14.5654 172.148 14.9863L171.515 13.0892C172.786 12.665 174.062 12.2505 175.342 11.8458ZM167.716 14.3909L168.379 16.2777C167.124 16.7188 165.874 17.1695 164.628 17.6297L163.935 15.7537C165.19 15.2898 166.451 14.8355 167.716 14.3909ZM160.172 17.178L160.895 19.0428C159.655 19.5234 158.42 20.0134 157.19 20.5127L156.438 18.6596C157.678 18.1563 158.922 17.6624 160.172 17.178ZM152.727 20.2009L153.509 22.0417C152.283 22.5622 151.063 23.092 149.847 23.6311L149.036 21.8029C150.261 21.2595 151.492 20.7255 152.727 20.2009ZM145.377 23.461L146.217 25.2761C145.01 25.8345 143.808 26.4021 142.612 26.9788L141.744 25.1772C142.949 24.5959 144.16 24.0238 145.377 23.461ZM138.134 26.9532L139.031 28.7407C137.843 29.3371 136.66 29.9426 135.482 30.5571L134.557 28.784C135.744 28.1647 136.936 27.5544 138.134 26.9532ZM131.01 30.6713L131.963 32.4295C130.793 33.064 129.629 33.7075 128.47 34.3598L127.489 32.6171C128.657 31.9595 129.83 31.3109 131.01 30.6713ZM124.003 34.6164L125.012 36.3433C123.864 37.0139 122.722 37.6932 121.586 38.3812L120.55 36.6705C121.695 35.977 122.846 35.2922 124.003 34.6164ZM117.126 38.7814L118.189 40.4755C117.063 41.1822 115.943 41.8976 114.829 42.6215L113.739 40.9446C114.862 40.2149 115.991 39.4938 117.126 38.7814ZM110.387 43.1608L111.503 44.8203C110.399 45.563 109.302 46.3141 108.21 47.0737L107.068 45.4321C108.168 44.6665 109.274 43.9094 110.387 43.1608ZM103.787 47.7541L104.956 49.3773C103.877 50.154 102.804 50.9389 101.739 51.732L100.545 50.1276C101.619 49.3281 102.7 48.5369 103.787 47.7541ZM97.3376 52.5541L98.557 54.1393C97.5031 54.9499 96.456 55.7687 95.4157 56.5954L94.1714 55.0297C95.2199 54.1964 96.2754 53.3711 97.3376 52.5541ZM91.0452 57.555C90.0089 58.4057 88.9797 59.2645 87.9576 60.1312L89.2511 61.6566C90.2651 60.7968 91.2862 59.9448 92.3142 59.1008L91.0452 57.555ZM84.9128 62.755L86.2303 64.2596C85.2302 65.1354 84.2373 66.0189 83.2516 66.9101L81.9103 65.4265C82.9038 64.5282 83.9047 63.6377 84.9128 62.755ZM78.9493 68.1467L80.3141 69.6087C79.3422 70.5159 78.3778 71.4307 77.4208 72.3529L76.0329 70.9128C76.9976 69.9832 77.9697 69.0611 78.9493 68.1467ZM73.1612 73.7248L74.5718 75.1426C73.6292 76.0804 72.6941 77.0256 71.7668 77.9781L70.3338 76.5829C71.2685 75.6228 72.211 74.6701 73.1612 73.7248ZM67.5528 79.4853L69.0079 80.8575C68.0959 81.8246 67.1917 82.7989 66.2953 83.7803L64.8186 82.4316C65.7221 81.4423 66.6335 80.4602 67.5528 79.4853ZM62.1314 85.4215C61.2437 86.4252 60.3641 87.436 59.4925 88.4538L61.0117 89.7547C61.8763 88.7449 62.749 87.7422 63.6296 86.7464L62.1314 85.4215ZM56.9025 91.5279L58.4423 92.8043C57.5941 93.8276 56.754 94.8577 55.9222 95.8945L54.3622 94.643C55.2007 93.5978 56.0475 92.5594 56.9025 91.5279ZM51.8719 97.7987L53.4518 99.025C52.6368 100.075 51.8301 101.132 51.0319 102.195L49.4325 100.994C50.2372 99.9223 51.0503 98.8571 51.8719 97.7987ZM47.0454 104.227L48.6639 105.402C47.883 106.478 47.1107 107.56 46.3471 108.648L44.7099 107.5C45.4797 106.402 46.2583 105.312 47.0454 104.227ZM42.4274 110.809L44.0829 111.931C43.3375 113.031 42.6008 114.137 41.8729 115.249L40.1995 114.153C40.9333 113.032 41.676 111.918 42.4274 110.809ZM38.0249 117.535L39.7158 118.603C39.006 119.727 38.3051 120.856 37.6133 121.992L35.9053 120.951C36.6028 119.807 37.3094 118.668 38.0249 117.535ZM33.8425 124.399L35.5671 125.412C34.8941 126.558 34.2301 127.71 33.5754 128.868L31.8346 127.883C32.4947 126.716 33.164 125.555 33.8425 124.399ZM29.8835 131.398L31.64 132.355C31.0051 133.521 30.3795 134.693 29.7631 135.87L27.9913 134.942C28.6126 133.755 29.2434 132.574 29.8835 131.398ZM26.1554 138.52L27.9422 139.418C27.3451 140.605 26.7574 141.798 26.1792 142.996L24.3781 142.127C24.961 140.919 25.5535 139.717 26.1554 138.52ZM22.6616 145.758L24.4767 146.598C23.9188 147.804 23.3703 149.015 22.8316 150.231L21.0029 149.421C21.5461 148.195 22.0991 146.974 22.6616 145.758ZM19.4042 153.111L21.2458 153.891C20.7283 155.113 20.2205 156.34 19.7224 157.572L17.8683 156.822C18.3704 155.58 18.8825 154.343 19.4042 153.111ZM16.3914 160.562L18.2576 161.282C17.7796 162.522 17.3116 163.766 16.8534 165.016L14.9757 164.327C15.4376 163.068 15.9095 161.813 16.3914 160.562ZM13.6244 168.108L15.5132 168.766C15.0764 170.02 14.6495 171.279 14.2327 172.543L12.3334 171.917C12.7536 170.643 13.184 169.373 13.6244 168.108ZM11.1045 175.748L13.0139 176.343C12.6193 177.609 12.2348 178.879 11.8605 180.153L9.94155 179.589C10.319 178.305 10.7067 177.024 11.1045 175.748ZM8.83991 183.457L10.7678 183.989C10.4141 185.27 10.0706 186.556 9.73745 187.846L7.80102 187.346C8.13697 186.045 8.48329 184.749 8.83991 183.457ZM6.82938 191.238L8.77376 191.707C8.46278 192.998 8.16207 194.293 7.87173 195.591L5.91991 195.155C6.21264 193.845 6.51583 192.54 6.82938 191.238ZM5.07356 199.093L7.0323 199.497C6.7647 200.794 6.50741 202.094 6.26051 203.399L4.29541 203.027C4.54434 201.712 4.80376 200.4 5.07356 199.093ZM3.58015 206.982C3.35227 208.305 3.13497 209.63 2.92832 210.96L4.90458 211.267C5.10954 209.948 5.32507 208.634 5.55109 207.322L3.58015 206.982ZM2.34486 214.926C2.16097 216.251 1.98765 217.579 1.82499 218.911L3.81023 219.153C3.97157 217.832 4.14348 216.515 4.32588 215.201L2.34486 214.926ZM1.36907 222.915L3.35802 223.125C3.21901 224.442 3.09049 225.761 2.97255 227.084L0.980452 226.906C1.09936 225.573 1.22893 224.242 1.36907 222.915ZM0.656229 230.91L2.65095 231.055C2.55435 232.382 2.46837 233.712 2.39311 235.044L0.396291 234.931C0.472167 233.588 0.558841 232.248 0.656229 230.91ZM0.202322 238.94L2.2007 239.021C2.14735 240.345 2.10457 241.671 2.07244 243.001L0.0730221 242.952C0.105414 241.612 0.148541 240.275 0.202322 238.94ZM0.00813556 246.98L2.00807 246.996C2.00269 247.664 2 248.331 2 249C2 249.668 2.00269 250.336 2.00807 251.003L0.00813322 251.02C0.00271447 250.347 0 249.674 0 249C0 248.326 0.00271525 247.653 0.00813556 246.98ZM0.0730158 255.047L2.07243 254.999C2.10456 256.328 2.14734 257.655 2.20069 258.979L0.202312 259.059C0.148532 257.725 0.105406 256.387 0.0730158 255.047ZM0.396277 263.068L2.39309 262.956C2.46836 264.288 2.55433 265.618 2.65093 266.944L0.656212 267.09C0.558825 265.752 0.472152 264.412 0.396277 263.068ZM0.980432 271.093L2.97253 270.916C3.09047 272.238 3.21899 273.558 3.35799 274.875L1.36905 275.085C1.2289 273.757 1.09934 272.427 0.980432 271.093ZM1.82496 279.089L3.81021 278.847C3.97155 280.167 4.14345 281.485 4.32585 282.799L2.34483 283.074C2.16094 281.749 1.98762 280.421 1.82496 279.089ZM2.92829 287.04L4.90455 286.733C5.10951 288.051 5.32505 289.366 5.55106 290.678L3.58012 291.017C3.35224 289.695 3.13493 288.369 2.92829 287.04ZM4.29538 294.973L6.26048 294.601C6.50738 295.905 6.76468 297.206 7.03228 298.503L5.07353 298.907C4.80373 297.6 4.54431 296.288 4.29538 294.973ZM5.91988 302.845L7.8717 302.409C8.16204 303.707 8.46275 305.002 8.77373 306.293L6.82935 306.762C6.5158 305.46 6.21261 304.154 5.91988 302.845ZM7.80099 310.654L9.73742 310.154C10.0706 311.444 10.4141 312.73 10.7678 314.011L8.83988 314.543C8.48326 313.251 8.13694 311.955 7.80099 310.654ZM9.94153 318.411L11.8604 317.847C12.2348 319.121 12.6193 320.391 13.0139 321.657L11.1045 322.252C10.7067 320.976 10.319 319.695 9.94153 318.411ZM12.3334 326.083L14.2327 325.457C14.6495 326.721 15.0764 327.98 15.5132 329.234L13.6244 329.892C13.184 328.627 12.7536 327.357 12.3334 326.083ZM14.9756 333.673L16.8534 332.984C17.3115 334.234 17.7796 335.478 18.2576 336.718L16.3914 337.438C15.9095 336.187 15.4376 334.932 14.9756 333.673ZM17.8683 341.178L19.7224 340.428C20.2205 341.66 20.7283 342.887 21.2459 344.109L19.4042 344.889C18.8825 343.657 18.3704 342.42 17.8683 341.178ZM21.003 348.579L22.8316 347.769C23.3703 348.985 23.9188 350.196 24.4768 351.402L22.6616 352.242C22.0991 351.026 21.5462 349.805 21.003 348.579ZM24.3781 355.873L26.1793 355.004C26.7575 356.202 27.3451 357.395 27.9422 358.582L26.1555 359.48C25.5535 358.283 24.961 357.081 24.3781 355.873ZM27.9913 363.058L29.7632 362.13C30.3795 363.307 31.0052 364.479 31.6401 365.645L29.8835 366.602C29.2434 365.426 28.6127 364.245 27.9913 363.058ZM31.8346 370.117L33.5754 369.133C34.2302 370.29 34.8941 371.442 35.5672 372.588L33.8426 373.601C33.1641 372.445 32.4947 371.284 31.8346 370.117ZM35.9054 377.049L37.6133 376.008C38.3052 377.144 39.0061 378.273 39.7159 379.397L38.025 380.465C37.3095 379.332 36.6029 378.194 35.9054 377.049ZM40.1996 383.847L41.873 382.751C42.6009 383.863 43.3376 384.969 44.083 386.069L42.4275 387.191C41.6761 386.083 40.9334 384.968 40.1996 383.847ZM44.71 390.501L46.3472 389.352C47.1108 390.44 47.8831 391.522 48.664 392.598L47.0455 393.773C46.2583 392.689 45.4798 391.598 44.71 390.501ZM49.4326 397.006C50.2373 398.078 51.0504 399.143 51.872 400.201L53.4519 398.975C52.6369 397.925 51.8302 396.868 51.032 395.805L49.4326 397.006ZM54.3623 403.357L55.9223 402.106C56.7541 403.142 57.5942 404.173 58.4424 405.196L56.9026 406.472C56.0476 405.441 55.2008 404.402 54.3623 403.357ZM59.4926 409.546L61.0118 408.245C61.8764 409.255 62.7491 410.258 63.6297 411.254L62.1315 412.579C61.2438 411.575 60.3642 410.564 59.4926 409.546ZM64.8187 415.569L66.2955 414.22C67.1918 415.201 68.096 416.176 69.008 417.143L67.5529 418.515C66.6336 417.54 65.7222 416.558 64.8187 415.569ZM70.3339 421.417L71.7669 420.022C72.6943 420.975 73.6293 421.92 74.5719 422.857L73.1613 424.275C72.2111 423.33 71.2686 422.377 70.3339 421.417ZM76.0331 427.087L77.4209 425.647C78.3779 426.569 79.3423 427.484 80.3142 428.391L78.9494 429.853C77.9699 428.939 76.9977 428.017 76.0331 427.087ZM81.9104 432.574L83.2517 431.09C84.2374 431.981 85.2303 432.865 86.2304 433.74L84.9129 435.245C83.9048 434.362 82.9039 433.472 81.9104 432.574ZM87.9577 437.869L89.2512 436.344C90.2653 437.203 91.2863 438.055 92.3144 438.899L91.0453 440.445C90.0091 439.594 88.9798 438.736 87.9577 437.869ZM94.1715 442.97L95.4158 441.405C96.4561 442.231 97.5032 443.05 98.5571 443.861L97.3377 445.446C96.2755 444.629 95.22 443.804 94.1715 442.97ZM100.545 447.873L101.739 446.268C102.805 447.061 103.877 447.846 104.956 448.623L103.787 450.246C102.7 449.463 101.619 448.672 100.545 447.873ZM107.068 452.568C108.168 453.334 109.274 454.091 110.387 454.839L111.503 453.18C110.399 452.437 109.302 451.686 108.21 450.926L107.068 452.568ZM113.739 457.056L114.829 455.379C115.943 456.102 117.063 456.818 118.189 457.525L117.126 459.219C115.991 458.506 114.862 457.785 113.739 457.056ZM120.55 461.33L121.586 459.619C122.722 460.307 123.864 460.986 125.012 461.657L124.003 463.384C122.846 462.708 121.695 462.023 120.55 461.33ZM127.489 465.383L128.47 463.64C129.629 464.293 130.793 464.936 131.963 465.571L131.01 467.329C129.831 466.689 128.657 466.041 127.489 465.383ZM134.557 469.216L135.482 467.443C136.66 468.057 137.843 468.663 139.031 469.259L138.134 471.047C136.936 470.446 135.744 469.835 134.557 469.216ZM141.744 472.823L142.612 471.021C143.808 471.598 145.01 472.166 146.217 472.724L145.377 474.539C144.16 473.976 142.949 473.404 141.744 472.823ZM149.036 476.197L149.847 474.369C151.063 474.908 152.283 475.438 153.509 475.958L152.727 477.799C151.492 477.275 150.261 476.741 149.036 476.197ZM156.438 479.34L157.19 477.487C158.42 477.987 159.655 478.477 160.895 478.957L160.172 480.822C158.922 480.338 157.678 479.844 156.438 479.34ZM163.935 482.246L164.628 480.37C165.874 480.83 167.124 481.281 168.379 481.722L167.716 483.609C166.451 483.164 165.19 482.71 163.935 482.246ZM171.515 484.911L172.148 483.014C173.409 483.435 174.675 483.846 175.944 484.247L175.342 486.154C174.062 485.75 172.786 485.335 171.515 484.911ZM179.184 487.336L179.757 485.419C181.028 485.799 182.303 486.169 183.582 486.529L183.04 488.455C181.75 488.091 180.465 487.718 179.184 487.336ZM186.921 489.514L187.433 487.581C188.717 487.921 190.006 488.251 191.298 488.571L190.817 490.512C189.515 490.189 188.216 489.857 186.921 489.514ZM194.721 491.446L195.171 489.497C196.465 489.796 197.764 490.085 199.066 490.364L198.647 492.32C197.334 492.039 196.026 491.747 194.721 491.446ZM202.589 493.132L202.977 491.17C204.277 491.427 205.58 491.674 206.887 491.912L206.53 493.879C205.213 493.64 203.899 493.391 202.589 493.132ZM210.493 494.566L210.819 492.593C212.131 492.81 213.448 493.017 214.767 493.213L214.473 495.191C213.142 494.993 211.816 494.785 210.493 494.566ZM218.442 495.751L218.706 493.769C220.022 493.944 221.341 494.109 222.663 494.264L222.431 496.25C221.098 496.094 219.768 495.928 218.442 495.751ZM226.439 496.687L226.64 494.698C227.957 494.831 229.277 494.954 230.6 495.067L230.429 497.06C229.096 496.946 227.766 496.822 226.439 496.687ZM234.435 497.371L234.574 495.376C235.902 495.468 237.232 495.551 238.566 495.623L238.458 497.62C237.114 497.547 235.773 497.464 234.435 497.371ZM242.466 497.806L242.543 495.807C243.867 495.859 245.195 495.9 246.524 495.931L246.478 497.93C245.138 497.899 243.801 497.858 242.466 497.806ZM250.506 497.992L250.522 495.992C251.189 495.997 251.857 496 252.526 496C253.186 496 253.845 495.997 254.504 495.99L254.524 497.99C253.858 497.997 253.192 498 252.526 498C251.852 498 251.179 497.997 250.506 497.992ZM258.518 497.914L258.461 495.915C259.78 495.877 261.099 495.826 262.417 495.763L262.513 497.761C261.181 497.825 259.85 497.875 258.518 497.914ZM266.503 497.534C267.831 497.445 269.158 497.345 270.485 497.232L270.316 495.239C269.001 495.351 267.686 495.451 266.371 495.538L266.503 497.534ZM274.464 496.857L274.259 494.868C275.572 494.732 276.886 494.584 278.198 494.425L278.44 496.41C277.115 496.571 275.79 496.72 274.464 496.857ZM282.398 495.893L282.121 493.912C283.427 493.729 284.733 493.535 286.038 493.329L286.349 495.305C285.033 495.512 283.716 495.708 282.398 495.893ZM290.296 494.647L289.95 492.677C291.249 492.449 292.547 492.209 293.843 491.958L294.223 493.922C292.915 494.175 291.606 494.417 290.296 494.647ZM298.137 493.131L297.725 491.174C299.017 490.901 300.308 490.617 301.598 490.322L302.044 492.272C300.743 492.569 299.441 492.856 298.137 493.131ZM305.934 491.349L305.456 489.407C306.737 489.092 308.015 488.767 309.292 488.43L309.802 490.364C308.514 490.703 307.225 491.032 305.934 491.349ZM313.659 489.315L313.119 487.39C314.393 487.032 315.665 486.665 316.935 486.286L317.506 488.203C316.225 488.584 314.943 488.955 313.659 489.315ZM321.319 487.035L320.718 485.127C321.978 484.731 323.235 484.324 324.491 483.907L325.121 485.805C323.856 486.225 322.588 486.635 321.319 487.035ZM328.91 484.515L328.251 482.627C329.497 482.192 330.741 481.747 331.982 481.293L332.67 483.171C331.419 483.629 330.165 484.077 328.91 484.515ZM336.409 481.771L335.694 479.903C336.929 479.43 338.161 478.947 339.391 478.455L340.134 480.312C338.895 480.808 337.653 481.294 336.409 481.771ZM343.836 478.8L343.067 476.954C344.285 476.446 345.5 475.929 346.712 475.403L347.508 477.238C346.287 477.768 345.063 478.289 343.836 478.8ZM351.164 475.621C352.38 475.073 353.593 474.515 354.803 473.949L353.955 472.138C352.753 472.7 351.549 473.253 350.342 473.798L351.164 475.621ZM358.404 472.233C359.602 471.653 360.796 471.063 361.987 470.466L361.089 468.678C359.907 469.272 358.721 469.857 357.532 470.434L358.404 472.233ZM365.55 468.646C366.732 468.033 367.91 467.411 369.084 466.781L368.139 465.018C366.972 465.644 365.802 466.262 364.629 466.871L365.55 468.646ZM372.59 464.87L371.621 463.12C372.779 462.48 373.933 461.831 375.083 461.174L376.075 462.91C374.917 463.572 373.755 464.225 372.59 464.87ZM379.537 460.903L378.523 459.179C379.661 458.51 380.796 457.832 381.927 457.146L382.963 458.857C381.825 459.547 380.683 460.229 379.537 460.903ZM386.367 456.763L385.308 455.066C386.432 454.365 387.552 453.657 388.668 452.941L389.748 454.624C388.625 455.345 387.498 456.058 386.367 456.763ZM393.096 452.445C394.207 451.712 395.313 450.972 396.416 450.224L395.294 448.569C394.198 449.312 393.098 450.047 391.995 450.776L393.096 452.445ZM399.711 447.96L398.569 446.319C399.655 445.562 400.738 444.798 401.816 444.027L402.979 445.654C401.894 446.43 400.805 447.199 399.711 447.96ZM406.213 443.312L405.03 441.699C406.097 440.916 407.159 440.127 408.218 439.33L409.421 440.928C408.356 441.729 407.287 442.524 406.213 443.312ZM412.601 438.503L411.379 436.92C412.426 436.111 413.469 435.296 414.507 434.474L415.748 436.042C414.704 436.869 413.655 437.689 412.601 438.503ZM418.866 433.543L417.606 431.99C418.634 431.156 419.657 430.315 420.676 429.468L421.955 431.005C420.93 431.858 419.9 432.704 418.866 433.543ZM425.013 428.431L423.716 426.908C424.723 426.05 425.725 425.185 426.723 424.315L428.038 425.821C427.035 426.697 426.026 427.567 425.013 428.431ZM431.033 423.175L429.699 421.684C430.687 420.801 431.669 419.912 432.646 419.017L433.997 420.492C433.014 421.392 432.026 422.286 431.033 423.175ZM436.927 417.775L435.559 416.316C436.524 415.41 437.485 414.499 438.44 413.581L439.825 415.023C438.865 415.946 437.899 416.863 436.927 417.775ZM442.691 412.237L441.288 410.812C442.232 409.883 443.171 408.948 444.104 408.008L445.523 409.417C444.585 410.363 443.641 411.303 442.691 412.237ZM448.322 406.564L446.886 405.172C447.808 404.221 448.724 403.264 449.634 402.303L451.086 403.678C450.171 404.645 449.249 405.607 448.322 406.564ZM453.815 400.76L452.347 399.402C453.246 398.429 454.139 397.451 455.027 396.467L456.511 397.807C455.619 398.796 454.72 399.781 453.815 400.76ZM459.172 394.824L457.671 393.502C458.546 392.508 459.415 391.509 460.278 390.506L461.794 391.81C460.926 392.819 460.052 393.824 459.172 394.824ZM464.382 388.764L462.85 387.479C463.702 386.463 464.547 385.443 465.387 384.419L466.934 385.686C466.09 386.717 465.239 387.743 464.382 388.764ZM469.447 382.579L467.884 381.331C468.71 380.297 469.53 379.258 470.343 378.215L471.92 379.444C471.102 380.494 470.278 381.539 469.447 382.579ZM474.36 376.274L472.767 375.064C473.569 374.009 474.364 372.949 475.152 371.886L476.759 373.076C475.966 374.146 475.166 375.212 474.36 376.274ZM479.116 369.852L477.494 368.682C478.269 367.608 479.038 366.529 479.799 365.447L481.435 366.597C480.669 367.686 479.896 368.771 479.116 369.852ZM483.715 363.31L482.065 362.181C482.813 361.088 483.553 359.991 484.287 358.891L485.951 360C485.213 361.107 484.468 362.211 483.715 363.31ZM488.143 356.665L486.464 355.577C487.186 354.464 487.9 353.346 488.607 352.225L490.299 353.292C489.588 354.42 488.869 355.544 488.143 356.665ZM492.408 349.896L490.703 348.852C491.393 347.723 492.077 346.592 492.752 345.456L494.471 346.479C493.791 347.621 493.104 348.76 492.408 349.896ZM496.492 343.029L494.76 342.029C495.422 340.881 496.077 339.729 496.723 338.574L498.469 339.551C497.818 340.713 497.159 341.873 496.492 343.029ZM500.396 336.053L498.638 335.099C499.268 333.937 499.89 332.771 500.504 331.602L502.275 332.531C501.657 333.708 501.031 334.882 500.396 336.053ZM504.112 328.974L502.329 328.068C502.928 326.887 503.519 325.704 504.101 324.517L505.897 325.398C505.311 326.593 504.716 327.785 504.112 328.974ZM507.629 321.805L505.821 320.949C506.388 319.75 506.947 318.549 507.496 317.345L509.316 318.175C508.762 319.388 508.2 320.598 507.629 321.805ZM510.95 314.525L509.119 313.721C509.651 312.51 510.173 311.297 510.687 310.081L512.529 310.859C512.012 312.084 511.486 313.306 510.95 314.525ZM514.056 307.167L512.203 306.416C512.701 305.187 513.189 303.956 513.667 302.723L515.532 303.447C515.05 304.689 514.558 305.929 514.056 307.167ZM516.949 299.712L515.074 299.017C515.533 297.778 515.983 296.537 516.422 295.295L518.308 295.962C517.865 297.214 517.412 298.464 516.949 299.712ZM519.615 292.176L517.719 291.538C518.142 290.284 518.554 289.028 518.955 287.77L520.861 288.378C520.456 289.646 520.04 290.912 519.615 292.176ZM522.044 284.569L520.13 283.991C520.513 282.723 520.886 281.453 521.248 280.182L523.171 280.729C522.806 282.011 522.431 283.291 522.044 284.569ZM524.235 276.874L522.303 276.358C522.644 275.082 522.975 273.804 523.294 272.525L525.235 273.01C524.913 274.3 524.579 275.588 524.235 276.874ZM526.171 269.125L524.223 268.673C524.522 267.383 524.811 266.093 525.088 264.801L527.043 265.22C526.764 266.523 526.473 267.825 526.171 269.125ZM527.848 261.308L525.885 260.922C526.14 259.627 526.383 258.331 526.615 257.033L528.584 257.385C528.35 258.694 528.105 260.002 527.848 261.308ZM529.253 253.439L527.279 253.122C527.488 251.818 527.686 250.512 527.872 249.207L529.852 249.488C529.664 250.806 529.465 252.123 529.253 253.439ZM530.378 245.534L528.394 245.288C528.556 243.975 528.707 242.662 528.845 241.348L530.834 241.558C530.695 242.884 530.543 244.209 530.378 245.534ZM531.216 237.579C531.331 236.253 531.434 234.926 531.524 233.599L529.528 233.463C529.439 234.778 529.338 236.092 529.224 237.406L531.216 237.579ZM531.756 229.608L529.758 229.511C529.823 228.192 529.874 226.873 529.913 225.554L531.912 225.613C531.873 226.945 531.821 228.276 531.756 229.608Z" fill="#331B3B"/>
</svg>
